<svg width="25" height="25" viewBox="0 0 25 25" fill="none" xmlns="http://www.w3.org/2000/svg">
<g clip-path="url(#clip0_11_2)">
<path d="M20.5301 20.3645L19.8801 20.798L21.4105 23.0938H4.12031L5.94336 20.3594H15.868V19.5781H5.73438C5.67008 19.5781 5.60678 19.594 5.55008 19.6243C5.49339 19.6546 5.44506 19.6985 5.40938 19.752L3.06563 23.2676C3.02295 23.3318 3.00012 23.4072 3 23.4844V24.6562C3 24.8635 3.08231 25.0622 3.22882 25.2087C3.37534 25.3552 3.57405 25.4375 3.78125 25.4375H21.75C21.9572 25.4375 22.1559 25.3552 22.3024 25.2087C22.4489 25.0622 22.5312 24.8635 22.5312 24.6562V23.4844C22.5311 23.4072 22.5083 23.3318 22.4656 23.2676L20.5301 20.3645ZM3.78125 24.6562V23.875H21.75V24.6562H3.78125Z" fill="white"/>
<path d="M20.5781 2H4.95312C4.64261 2.00093 4.34508 2.12469 4.12551 2.34426C3.90594 2.56383 3.78218 2.86136 3.78125 3.17188V13.3281C3.78218 13.6386 3.90594 13.9362 4.12551 14.1557C4.34508 14.3753 4.64261 14.4991 4.95312 14.5H10.4219V16.0625H8.85938C8.75577 16.0625 8.65642 16.1037 8.58316 16.1769C8.5099 16.2502 8.46875 16.3495 8.46875 16.4531V18.0156C8.46875 18.1192 8.5099 18.2186 8.58316 18.2918C8.65642 18.3651 8.75577 18.4062 8.85938 18.4062H16.6719C16.7755 18.4062 16.8748 18.3651 16.9481 18.2918C17.0213 18.2186 17.0625 18.1192 17.0625 18.0156V16.4531C17.0625 16.3495 17.0213 16.2502 16.9481 16.1769C16.8748 16.1037 16.7755 16.0625 16.6719 16.0625H15.1094V14.5H20.5781C20.8886 14.4991 21.1862 14.3753 21.4057 14.1557C21.6253 13.9362 21.7491 13.6386 21.75 13.3281V3.17188C21.7491 2.86136 21.6253 2.56383 21.4057 2.34426C21.1862 2.12469 20.8886 2.00093 20.5781 2V2ZM16.2812 16.8438V17.625H9.25V16.8438H16.2812ZM11.2031 16.0625V14.5H14.3281V16.0625H11.2031ZM20.9688 13.3281C20.9688 13.4317 20.9276 13.5311 20.8543 13.6043C20.7811 13.6776 20.6817 13.7188 20.5781 13.7188H4.95312C4.84952 13.7188 4.75017 13.6776 4.67691 13.6043C4.60366 13.5311 4.5625 13.4317 4.5625 13.3281V12.1562H20.9688V13.3281ZM20.9688 11.375H4.5625V3.17188C4.5625 3.06827 4.60366 2.96892 4.67691 2.89566C4.75017 2.82241 4.84952 2.78125 4.95312 2.78125H20.5781C20.6817 2.78125 20.7811 2.82241 20.8543 2.89566C20.9276 2.96892 20.9688 3.06827 20.9688 3.17188V11.375Z" fill="white"/>
<path d="M18.625 12.5469H19.4062V13.3281H18.625V12.5469Z" fill="white"/>
<path d="M9.25 10.5938H10.8125C10.9161 10.5938 11.0155 10.5526 11.0887 10.4793C11.162 10.4061 11.2031 10.3067 11.2031 10.2031V9.8125H14.3281V10.2031C14.3281 10.3067 14.3693 10.4061 14.4425 10.4793C14.5158 10.5526 14.6151 10.5938 14.7188 10.5938H16.2812C16.3849 10.5938 16.4842 10.5526 16.5575 10.4793C16.6307 10.4061 16.6719 10.3067 16.6719 10.2031V8.64062C16.6719 8.53702 16.6307 8.43767 16.5575 8.36441C16.4842 8.29115 16.3849 8.25 16.2812 8.25H15.8906V5.90625H16.2812C16.3849 5.90625 16.4842 5.86509 16.5575 5.79184C16.6307 5.71858 16.6719 5.61923 16.6719 5.51562V3.95312C16.6719 3.84952 16.6307 3.75017 16.5575 3.67691C16.4842 3.60366 16.3849 3.5625 16.2812 3.5625H14.7188C14.6151 3.5625 14.5158 3.60366 14.4425 3.67691C14.3693 3.75017 14.3281 3.84952 14.3281 3.95312V4.34375H11.2031V3.95312C11.2031 3.84952 11.162 3.75017 11.0887 3.67691C11.0155 3.60366 10.9161 3.5625 10.8125 3.5625H9.25C9.1464 3.5625 9.04704 3.60366 8.97379 3.67691C8.90053 3.75017 8.85938 3.84952 8.85938 3.95312V5.51562C8.85938 5.61923 8.90053 5.71858 8.97379 5.79184C9.04704 5.86509 9.1464 5.90625 9.25 5.90625H9.64062V8.25H9.25C9.1464 8.25 9.04704 8.29115 8.97379 8.36441C8.90053 8.43767 8.85938 8.53702 8.85938 8.64062V10.2031C8.85938 10.3067 8.90053 10.4061 8.97379 10.4793C9.04704 10.5526 9.1464 10.5938 9.25 10.5938ZM15.8906 9.8125H15.1094V9.03125H15.8906V9.8125ZM15.1094 4.34375H15.8906V5.125H15.1094V4.34375ZM9.64062 4.34375H10.4219V5.125H9.64062V4.34375ZM10.4219 5.90625H10.8125C10.9161 5.90625 11.0155 5.86509 11.0887 5.79184C11.162 5.71858 11.2031 5.61923 11.2031 5.51562V5.125H14.3281V5.51562C14.3281 5.61923 14.3693 5.71858 14.4425 5.79184C14.5158 5.86509 14.6151 5.90625 14.7188 5.90625H15.1094V8.25H14.7188C14.6151 8.25 14.5158 8.29115 14.4425 8.36441C14.3693 8.43767 14.3281 8.53702 14.3281 8.64062V9.03125H11.2031V8.64062C11.2031 8.53702 11.162 8.43767 11.0887 8.36441C11.0155 8.29115 10.9161 8.25 10.8125 8.25H10.4219V5.90625ZM9.64062 9.03125H10.4219V9.8125H9.64062V9.03125Z" fill="white"/>
<path d="M9.25 21.5312H14.7188V22.3125H9.25V21.5312Z" fill="white"/>
<path d="M23.6523 15.6094L22.5469 14.5039C22.5105 14.4675 22.4672 14.4388 22.4196 14.4193C22.372 14.3999 22.321 14.3901 22.2695 14.3906C22.2187 14.3901 22.1682 14.3999 22.1213 14.4194C22.0743 14.4389 22.0317 14.4676 21.9961 14.5039L16.7461 19.7539C16.7033 19.7966 16.6712 19.8488 16.6523 19.9063L16.375 20.7344C16.3527 20.803 16.3496 20.8765 16.3662 20.9467C16.3827 21.017 16.4182 21.0813 16.4688 21.1328L15.918 21.6875L16.4688 22.2383L17.0234 21.6875C17.0593 21.7235 17.1019 21.7521 17.1488 21.7715C17.1957 21.791 17.2461 21.8009 17.2969 21.8008C17.3393 21.8003 17.3814 21.7938 17.4219 21.7813L18.25 21.5039C18.3075 21.4851 18.3597 21.453 18.4023 21.4102L23.6523 16.1602C23.7251 16.087 23.7659 15.988 23.7659 15.8848C23.7659 15.7816 23.7251 15.6826 23.6523 15.6094V15.6094ZM17.918 20.793L17.4063 20.961L17.1914 20.75L17.3633 20.2383L21.1641 16.4375L21.7188 16.9883L17.918 20.793ZM22.2695 16.4375L21.7188 15.8867L22.2695 15.3321L22.8242 15.8867L22.2695 16.4375Z" fill="white"/>
</g>
<defs>
<clipPath id="clip0_11_2">
<rect width="25" height="25" fill="white"/>
</clipPath>
</defs>
</svg>
